#!OML:ASF F:\VICON\USERDATA\INSTALL\rory3\rory3.ASF
:FULLY-SPECIFIED
:DEGREES
138
root -0.158828 17.6859 -2.55183 -3.27927 1.70278 -0.777827
lowerback 10.3897 -1.53857 -2.03468
upperback 0.388184 -2.15279 2.43479
thorax -5.25385 -0.983483 4.01585
lowerneck -16.4465 -2.61471 -1.70454
upperneck 21.4945 -3.10375 -0.401002
head 9.52947 -1.63317 -0.257175
rclavicle 3.77691e-015 1.98785e-015
rhumerus -39.3814 -30.6264 -66.254
rradius 17.1855
rwrist 16.5203
rhand -16.9306 22.1342
rfingers 7.12502
rthumb 9.30235 -7.64057
lclavicle 3.77691e-015 1.98785e-015
lhumerus -26.1988 -1.53337 81.6338
lradius 32.0275
lwrist 9.33188
lhand -30.0733 23.3538
lfingers 7.12502
lthumb -3.38828 53.3066
rfemur -28.0597 2.8561 24.4536
rtibia 36.9196
rfoot -3.94217 -4.49879
rtoes 7.55905
lfemur 11.4302 -1.12755 -21.2814
ltibia 43.1961
lfoot -10.644 -18.2656
ltoes -51.5092
139
root -0.183784 17.6946 -2.35649 -3.42472 1.64947 -0.968013
lowerback 10.469 -1.5007 -1.90673
upperback 0.408482 -2.0866 2.45791
thorax -5.28605 -0.953192 3.96103
lowerneck -16.2312 -2.6517 -1.6902
upperneck 21.4248 -3.15649 -0.430443
head 9.46453 -1.66044 -0.272615
rclavicle 3.02401e-014 -6.36111e-015
rhumerus -39.1542 -30.0658 -66.7915
rradius 17.3311
rwrist 15.8829
rhand -16.8161 22.739
rfingers 7.12502
rthumb 9.41283 -7.03083
lclavicle 3.02401e-014 -6.36111e-015
lhumerus -26.3644 -1.81135 81.7737
lradius 31.9642
lwrist 9.594
lhand -29.9659 22.8106
lfingers 7.12502
lthumb -3.28457 52.7651
rfemur -27.39 3.21776 24.8333
rtibia 37.2228
rfoot -4.33769 -4.78916
rtoes 8.68886
lfemur 10.321 -0.330517 -20.5768
ltibia 45.6431
lfoot -12.7592 -18.6986
ltoes -52.0558
140
root -0.209622 17.7155 -2.16504 -3.55255 1.4787 -1.52876
lowerback 10.6182 -1.43009 -1.45273
upperback 0.390371 -1.92873 2.62871
thorax -5.41064 -0.88173 3.86776
lowerneck -16.3062 -2.6604 -1.71473
upperneck 21.6233 -3.16136 -0.430825
head 9.54865 -1.66466 -0.272462
rclavicle 7.20594e-016 9.14409e-015
rhumerus -38.8341 -28.8845 -67.7219
rradius 17.7902
rwrist 14.5499
rhand -17.0962 22.5473
rfingers 7.12502
rthumb 9.1425 -7.23451
lclavicle 7.20594e-016 9.14409e-015
lhumerus -26.4652 -1.91991 82.0122
lradius 31.576
lwrist 9.8139
lhand -27.7481 26.0059
lfingers 7.12502
lthumb -1.14261 55.9826
rfemur -26.542 3.69371 25.646
rtibia 37.1439
rfoot -4.87831 -5.06658
rtoes 9.15318
lfemur 8.80592 0.340955 -19.4675
ltibia 48.0763
lfoot -11.4535 -23.4639
ltoes -51.1174
141
root -0.228241 17.7625 -1.96927 -3.54504 1.80545 -2.05457
lowerback 10.7107 -1.49582 -0.941412
upperback 0.333295 -1.94432 2.77143
thorax -5.53353 -0.897741 3.73643
lowerneck -16.5096 -2.68284 -1.68423
upperneck 21.8187 -3.2013 -0.41477
head 9.65532 -1.67819 -0.282247
rclavicle 3.12465e-014 -1.55052e-014
rhumerus -38.4854 -27.3693 -68.9128
rradius 18.5805
rwrist 12.718
rhand -17.3872 21.4807
rfingers 7.12502
rthumb 8.86168 -8.3132
lclavicle 3.12465e-014 -1.55052e-014
lhumerus -26.43 -2.08151 82.235
lradius 31.1628
lwrist 9.81261
lhand -23.7558 31.0752
lfingers 7.12502
lthumb 2.71324 61.0377
rfemur -25.6043 3.76826 26.3483
rtibia 36.8414
rfoot -5.84197 -5.59157
rtoes 10.6862
lfemur 6.5405 0.308476 -18.4798
ltibia 50.5307
lfoot 2.7393 -28.9456
ltoes -41.2225
142
root -0.248005 17.8384 -1.77557 -3.5167 2.13192 -2.4116
lowerback 10.7767 -1.54476 -0.593461
upperback 0.314725 -1.9624 2.82287
thorax -5.5988 -0.913699 3.59968
lowerneck -16.4779 -2.69707 -1.56011
upperneck 21.6979 -3.26637 -0.366127
head 9.60551 -1.69236 -0.292692
rclavicle -4.17448e-015 -6.36111e-015
rhumerus -38.0747 -26.3054 -69.9421
rradius 19.2831
rwrist 11.4969
rhand -17.4716 19.9638
rfingers 7.12502
rthumb 8.78024 -9.83359
lclavicle -4.17448e-015 -6.36111e-015
lhumerus -26.6182 -2.35482 82.4108
lradius 31.1241
lwrist 8.80879
lhand -22.7221 32.2498
lfingers 7.12502
lthumb 3.7115 62.1972
rfemur -24.5485 3.89529 26.8355
rtibia 36.3736
rfoot -5.95448 -5.97933
rtoes 8.98387
lfemur 3.63936 0.015842 -17.737
ltibia 52.9619
lfoot 22.6531 -23.4604
ltoes -1.19192
143
root -0.266939 17.8702 -1.59545 -3.47619 2.13189 -2.75204
lowerback 10.7845 -1.51134 -0.223784
upperback 0.321979 -1.87031 2.85106
thorax -5.61244 -0.87746 3.40637
lowerneck -16.335 -2.70175 -1.39263
upperneck 21.454 -3.29828 -0.450117
head 9.48837 -1.70347 -0.348725
rclavicle -1.06101e-014 -3.97569e-016
rhumerus -37.627 -25.7695 -70.6223
rradius 19.6487
rwrist 10.9642
rhand -17.3338 19.4527
rfingers 7.12502
rthumb 8.91328 -10.339
lclavicle -1.06101e-014 -3.97569e-016
lhumerus -27.0361 -2.76791 82.6245
lradius 31.2245
lwrist 7.41353
lhand -23.8941 29.8762
lfingers 7.12502
lthumb 2.57968 59.8403
rfemur -23.7243 4.19294 27.3645
rtibia 36.0241
rfoot -6.16058 -6.30766
rtoes 7.80226
lfemur 1.42068 0.396457 -17.0016
ltibia 55.3834
lfoot 27.4245 -21.4607
ltoes 5.62259
144
root -0.283028 17.8828 -1.41592 -3.59125 2.00281 -3.19862
lowerback 10.958 -1.4425 0.275648
upperback 0.348435 -1.7105 2.90448
thorax -5.70449 -0.81014 3.16173
lowerneck -16.3284 -2.73878 -1.39462
upperneck 21.4325 -3.37823 -0.329908
head 9.48222 -1.727 -0.316912
rclavicle 3.48494e-014 -5.56597e-015
rhumerus -37.3053 -25.7073 -70.8834
rradius 19.3827
rwrist 11.1934
rhand -17.5679 21.5035
rfingers 7.12502
rthumb 8.68734 -8.29776
lclavicle 3.48494e-014 -5.56597e-015
lhumerus -27.2161 -2.90843 82.7632
lradius 30.92
lwrist 6.11182
lhand -25.7014 27.5609
lfingers 7.12502
lthumb 0.83412 57.539
rfemur -22.8312 4.53353 28.0239
rtibia 35.7813
rfoot -6.6369 -6.62366
rtoes 8.39164
lfemur -0.240706 1.04463 -16.1793
ltibia 57.7602
lfoot 27.8443 -21.4952
ltoes -0.219026
145
root -0.29683 17.8971 -1.23405 -3.77151 1.89383 -3.41103
lowerback 11.2128 -1.33653 0.51547
upperback 0.384395 -1.53454 2.8968
thorax -5.82509 -0.728857 2.99871
lowerneck -16.2338 -2.83548 -1.45113
upperneck 21.4114 -3.54729 -0.131647
head 9.46326 -1.78789 -0.259305
rclavicle 5.39203e-015 -7.55382e-015
rhumerus -36.9197 -25.2029 -71.424
rradius 19.2127
rwrist 11.1223
rhand -18.0417 22.8899
rfingers 7.12502
rthumb 8.23009 -6.92977
lclavicle 5.39203e-015 -7.55382e-015
lhumerus -27.2353 -3.11956 82.9124
lradius 30.474
lwrist 5.29984
lhand -27.129 27.0579
lfingers 7.12502
lthumb -0.544691 57.0369
rfemur -21.9472 4.79334 28.4289
rtibia 35.7393
rfoot -7.17443 -6.91626
rtoes 8.08041
lfemur -1.85381 1.61719 -15.714
ltibia 59.9705
lfoot 27.132 -20.6011
ltoes -3.50183
146
root -0.30996 17.9086 -1.05853 -3.95592 1.91646 -3.68698
lowerback 11.4803 -1.29129 0.8204
upperback 0.417353 -1.42781 2.90996
thorax -5.95266 -0.683366 2.83138
lowerneck -16.1824 -2.90815 -1.3595
upperneck 21.4616 -3.65989 -0.191576
head 9.46876 -1.8396 -0.309265
rclavicle 2.66744e-014 -1.07344e-014
rhumerus -36.4387 -25.0813 -71.7891
rradius 19.1114
rwrist 11.4505
rhand -18.3317 23.5997
rfingers 7.12502
rthumb 7.9502 -6.23077
lclavicle 2.66744e-014 -1.07344e-014
lhumerus -27.4439 -3.30769 83.0754
lradius 30.3641
lwrist 4.78553
lhand -26.9847 29.5061
lfingers 7.12502
lthumb -0.405297 59.4854
rfemur -21.1318 4.95805 28.8801
rtibia 35.8412
rfoot -7.76207 -7.27407
rtoes 8.10761
lfemur -3.10006 2.13253 -15.1334
ltibia 62.121
lfoot 22.7676 -20.1999
ltoes -14.3654
147
root -0.323992 17.9196 -0.889449 -4.06222 2.0945 -3.92599
lowerback 11.6394 -1.31261 1.03828
upperback 0.433869 -1.42034 2.95341
thorax -6.0292 -0.68447 2.75789
lowerneck -15.9352 -2.90251 -1.18955
upperneck 21.2341 -3.65736 -0.362001
head 9.33605 -1.84533 -0.388807
rclavicle 1.17656e-014 -4.45278e-014
rhumerus -35.964 -25.0513 -72.0515
rradius 19.1286
rwrist 11.8749
rhand -17.8443 25.4286
rfingers 7.12502
rthumb 8.42059 -4.38358
lclavicle 1.17656e-014 -4.45278e-014
lhumerus -27.6279 -3.01941 83.147
lradius 30.2628
lwrist 4.14347
lhand -26.211 30.6825
lfingers 7.12502
lthumb 0.341997 60.662
rfemur -20.3625 4.91444 29.2663
rtibia 35.8201
rfoot -8.23243 -7.5336
rtoes 8.77488
lfemur -4.57334 2.56901 -14.6347
ltibia 64.0661
lfoot 20.4607 -18.2617
ltoes -2.76994
148
root -0.331666 17.904 -0.723134 -4.18544 2.33058 -4.04159
lowerback 11.7186 -1.34632 1.168
upperback 0.52115 -1.44665 2.97189
thorax -5.9831 -0.701157 2.70874
lowerneck -15.8707 -2.91281 -1.15544
upperneck 21.0923 -3.6753 -0.380884
head 9.27367 -1.85349 -0.400389
rclavicle -7.41715e-015 1.23246e-014
rhumerus -35.2596 -24.2947 -72.7489
rradius 19.3809
rwrist 11.4801
rhand -17.5652 26.0056
rfingers 7.12502
rthumb 8.68999 -3.79552
lclavicle -7.41715e-015 1.23246e-014
lhumerus -27.7023 -2.58977 83.2214
lradius 30.2885
lwrist 3.19802
lhand -26.1953 32.6717
lfingers 7.12502
lthumb 0.357098 62.6511
rfemur -19.6475 4.71277 29.4935
rtibia 35.826
rfoot -8.53718 -7.66701
rtoes 9.36578
lfemur -6.01043 2.97613 -14.3762
ltibia 66.01
lfoot 18.3598 -17.933
ltoes 2.37349
149
root -0.342646 17.9406 -0.551751 -4.09698 2.30266 -4.31507
lowerback 11.5635 -1.3258 1.45884
upperback 0.610532 -1.38493 3.03351
thorax -5.80957 -0.679021 2.59168
lowerneck -16.0274 -2.88366 -1.23648
upperneck 21.1771 -3.63553 -0.278945
head 9.33591 -1.82899 -0.350646
rclavicle -4.99446e-015 -9.54166e-015
rhumerus -34.44 -23.8226 -73.2821
rradius 19.4266
rwrist 11.7723
rhand -17.8611 25.4659
rfingers 7.12502
rthumb 8.40436 -4.34688
lclavicle -4.99446e-015 -9.54166e-015
lhumerus -27.8752 -2.27404 83.2792
lradius 30.0905
lwrist 3.36093
lhand -28.1771 26.898
lfingers 7.12502
lthumb -1.55697 56.8721
rfemur -19.0128 4.65822 29.9157
rtibia 35.652
rfoot -9.21688 -7.72571
rtoes 7.50932
lfemur -7.49723 3.50135 -13.9855
ltibia 67.6023
lfoot 15.6788 -17.7295
ltoes -4.01575
